<?xml version="1.0" encoding="UTF-8"?>
<svg width="519px" height="561px" viewBox="0 0 519 561" version="1.1" xmlns="http://www.w3.org/2000/svg" xmlns:xlink="http://www.w3.org/1999/xlink">
    <!-- Generator: Sketch 48.2 (47327) - http://www.bohemiancoding.com/sketch -->
    <title>noun_86743_cc</title>
    <desc>Created with Sketch.</desc>
    <defs></defs>
    <g id="Page-1" stroke="none" stroke-width="1" fill="none" fill-rule="evenodd">
        <g id="noun_86743_cc">
            <g id="Group">
                <polygon id="top_left" fill="#3D8FCD" points="7.49458484 253.942095 40.3336297 136.499405 79.0633389 77.600303 109.436196 42.6050916 136.578349 38.2016507 148.352631 21.0243593 167.979959 21.0243593 195.995846 8.36666667 216.722388 8.36666667 225.86842 30.3873911 234.426089 70.7716257 234.426089 212.142846 234.426089 264.864459 225.86842 284.202992 195.995846 284.202992 190.19326 277.515112 159.609014 336.62541 116.774865 375.703748 96.8692108 390.832436 45.9142591 401.511925 28.414899 401.511925 12.4657137 359.504999 12.4657137 336.62541 7.49458484 309.683814 16.1368096 277.515112"></polygon>
                <polygon id="top_right" fill="#3D8FCD" transform="translate(400.133622, 204.939296) scale(-1, 1) translate(-400.133622, -204.939296) " points="286.66787 253.942095 319.506915 136.499405 358.236624 77.600303 388.609482 42.6050916 415.751634 38.2016507 427.525916 21.0243593 447.153244 21.0243593 475.169131 8.36666667 495.895673 8.36666667 505.041705 30.3873911 513.599375 70.7716257 513.599375 212.142846 513.599375 264.864459 505.041705 284.202992 475.169131 284.202992 469.366545 277.515112 438.7823 336.62541 395.94815 375.703748 376.042496 390.832436 325.087544 401.511925 307.588184 401.511925 291.638999 359.504999 291.638999 336.62541 286.66787 309.683814 295.310095 277.515112"></polygon>
                <polygon id="bottom_left" fill="#3D8FCD" points="31.1299765 404.670879 58.8403804 404.670879 91.9233878 392.149999 139.708983 360.518073 193.727673 277.767592 211.841646 286.336118 225.92835 286.336118 242.841131 306.263839 242.841131 355.142 242.841131 404.670879 242.841131 469.886888 225.92835 489.517636 225.92835 519.33279 200.668378 541.54021 161.671138 552.091465 111.885012 532.906175 68.6421059 496.23882 31.1299765 421.22709"></polygon>
                <polygon id="bottom_right" fill="#3D8FCD" transform="translate(385.028863, 415.288603) scale(-1, 1) translate(-385.028863, -415.288603) " points="279.173285 405.029954 306.883689 405.029954 339.966696 392.509074 387.752292 360.877148 441.770981 278.126667 459.884954 286.695193 473.971659 286.695193 490.88444 306.622914 490.88444 355.501075 490.88444 405.029954 490.88444 470.245963 473.971659 489.876711 473.971659 519.691865 448.711686 541.899285 409.714447 552.45054 359.928321 533.26525 316.685415 496.597895 279.173285 421.586165"></polygon>
                <path d="M512.421653,348.66109 C523.948444,328.996208 515.918965,298.091582 512.73959,287.835705 C526.978201,253.132606 499.46726,164.105115 487.348233,134.501933 C477.972195,111.63637 459.070502,90.8070384 445.262043,75.6006921 C439.109018,68.8257106 433.791358,62.9598719 431.765286,59.5412461 C423.286955,45.1942265 412.508252,38.3071589 396.84204,37.2112061 C393.425771,36.9745799 393.375898,36.8874018 391.112932,32.5160443 C389.367393,29.1410075 386.961043,24.5205698 381.973789,19.781819 C375.939211,14.0467473 369.567994,12.9009784 362.267901,14.0280663 C359.817913,14.4141406 357.972629,15.9895729 351.576475,12.3156399 C336.708224,3.75973499 328.136381,0.0110779552 308.586345,0.0110779552 C285.863169,0.0110779552 278.351117,43.0396828 276.711558,55.5310549 C272.160688,75.3204769 272.160688,139.408813 272.14822,190.912371 C272.14822,210.446486 272.14822,227.153541 271.861453,236.786718 C271.21311,259.266206 277.640434,273.557182 282.970561,281.453025 C270.159553,294.834859 266.656007,327.153015 267.591117,338.592023 C268.220758,346.282374 270.714385,350.933947 272.51603,354.333892 C274.716656,358.437488 275.813852,360.4924 272.310306,369.82668 C263.925485,392.225217 268.619738,462.758503 272.185625,474.016929 C273.78778,479.010987 276.293875,481.813139 278.288777,484.061088 C281.187618,487.311584 284.186205,490.674167 284.610121,508.128462 C285.489125,544.469264 343.148016,560.796471 357.910288,560.796471 C372.84088,560.796471 396.966721,548.934026 399.186049,547.813165 C451.246748,526.130734 470.148441,481.258935 481.425869,454.445452 C484.592775,446.948138 488.177364,438.435822 490.340585,436.586401 C503.425893,425.508559 502.9147,407.18871 502.141675,400.127287 C513.649764,378.208229 513.113634,356.525797 512.421653,348.66109 Z M473.190666,140.293047 C486.593911,173.022186 505.009346,239.694729 501.094352,271.85721 C500.00339,270.02647 498.887492,268.201958 497.752892,266.358764 C491.151014,255.698132 484.349646,244.670106 481.51938,226.238171 C475.933655,189.698105 453.578289,180.824623 452.618243,180.463457 C449.719401,179.348823 446.421579,180.805942 445.286979,183.732635 C444.133677,186.6531 445.586214,189.965867 448.497524,191.142771 C449.195739,191.422986 465.678614,198.42214 470.179611,227.963051 C473.358985,248.698978 481.132868,261.277528 487.984108,272.367824 C492.566148,279.77796 496.506078,286.247819 498.70047,294.243293 C502.285059,306.684849 506.742417,330.615229 498.313958,342.371815 C488.987793,348.798084 465.466656,358.325402 430.163131,327.30869 C407.464891,307.357366 399.179815,292.823536 399.098772,292.680315 C397.54649,289.915525 394.024241,288.925431 391.306188,290.475955 C388.544496,292.014025 387.553279,295.488694 389.080626,298.247257 C389.442202,298.894866 398.232237,314.481059 422.582505,335.89573 C443.884314,354.626561 462.037919,360.342952 476.276529,360.342952 C484.779797,360.342952 491.855464,358.300494 497.403784,355.778557 C497.422486,364.639585 495.988651,379.802342 487.728511,394.622614 C468.527583,399.305322 392.577938,407.830092 332.020205,274.279515 C332.001503,274.24838 331.970333,274.179883 331.957865,274.148748 C331.92046,274.067797 331.845651,274.024208 331.814481,273.949484 C331.633693,273.606998 331.378096,273.326783 331.128734,273.02166 C330.947946,272.803715 330.823264,272.535953 330.61754,272.349143 C330.542731,272.286873 330.461688,272.255738 330.386879,272.193468 C330.312071,272.131198 330.2809,272.050247 330.206092,271.987977 C329.969197,271.813621 329.694898,271.757578 329.445535,271.620584 C329.202407,271.489817 329.002916,271.303006 328.74732,271.209601 C328.653809,271.178466 328.554064,271.178466 328.454319,271.147331 C328.067806,271.022791 327.681294,270.997883 327.282314,270.960521 C327.045419,270.935613 326.814759,270.848435 326.57163,270.854662 C326.478119,270.854662 326.397076,270.898251 326.303565,270.910705 C325.885883,270.94184 325.493136,271.06638 325.094156,271.19092 C324.86973,271.259417 324.632835,270.487269 324.414643,270.593128 C324.389706,270.611809 324.377238,269.883249 324.36477,269.883249 C324.352302,269.883249 324.339834,269.883249 324.3336,269.883249 C324.265025,269.883249 324.221387,270.736349 324.159046,270.773711 C323.809938,270.948067 323.523171,271.589449 323.217702,271.838529 C322.993275,272.019112 322.718976,272.342916 322.531954,272.548408 C322.469614,272.616905 322.438443,272.803715 322.388571,272.872212 C322.319996,272.946936 322.238953,273.027887 322.176612,273.108838 C316.04229,281.334712 307.981641,281.347166 302.645279,280.120446 L299.310053,277.330747 C298.767689,276.88863 286.305788,266.078549 287.153621,237.228835 C287.440388,227.50848 287.440388,210.633296 287.440388,190.912371 C287.446622,174.703477 287.452856,155.542983 287.652346,136.743655 C297.140597,132.565334 318.698003,125.852623 331.932928,143.730354 C339.095872,153.388439 341.720414,162.585726 339.737981,171.07936 C337.680739,179.871892 331.122499,185.98681 326.122777,188.54611 C323.317447,189.990775 322.207783,193.446762 323.654087,196.255142 C324.67024,198.229102 326.665141,199.368644 328.741086,199.368644 C329.626323,199.368644 330.517795,199.163153 331.371862,198.73349 C338.435061,195.103146 346.826116,187.21353 350.242385,175.818111 C354.899233,175.942651 368.140393,177.785845 376.755874,194.337224 C377.753325,196.255142 379.741993,197.419592 381.842873,197.419592 C382.229385,197.419592 382.6346,197.38223 383.03358,197.288825 C385.552143,196.759529 387.409896,194.611212 387.559513,192.039459 C387.603152,191.267311 388.980881,173.146726 410.862458,171.714515 C429.676874,170.494022 442.226052,164.173612 445.330618,154.38476 C446.596133,150.374569 447.182136,142.397775 436.839817,134.084723 C430.998496,129.389562 430.898751,125.98339 430.742899,120.821203 C430.593282,115.721286 430.393792,109.53787 424.614811,102.999514 C428.779168,96.6292881 430.780304,89.6550425 431.596967,83.2785893 C432.382459,84.144143 433.111845,84.9598807 433.940976,85.8690234 C446.976411,100.234724 464.843249,119.91206 473.190666,140.293047 Z M308.586345,15.2796943 C324.757516,15.2796943 330.455454,17.7829503 343.952211,25.5480256 C351.07775,29.6391679 358.521226,30.0688313 364.624379,29.1160995 C365.659234,28.9541974 366.625514,28.7736142 367.622965,28.7736142 C368.271308,28.7736142 369.256291,28.7736142 371.43198,30.8472069 C374.567716,33.8237153 376.007786,36.6009596 377.535133,39.5463329 C378.432838,41.2712133 379.473928,43.2015849 380.876593,45.0447784 C381.992491,50.6179479 382.528621,58.4079312 379.006373,64.6349363 C375.826998,70.2641488 369.555526,73.8571307 360.378979,75.3267039 C357.243243,75.8186373 355.104957,78.7577837 355.616151,81.8837402 C356.05877,84.7045735 358.49629,86.7034421 361.27045,86.7034421 C361.569686,86.7034421 361.868921,86.6847611 362.168156,86.628718 C375.010335,84.5862604 384.043499,79.0629069 389.030753,70.2018788 C392.316107,64.348494 393.269919,57.9035438 393.151472,52.0688401 C393.999305,52.2058342 394.815968,52.3739633 395.763546,52.4424604 C406.29912,53.183474 412.707742,57.3493404 418.586468,67.3125484 C419.072725,68.1345131 419.746004,69.0498828 420.381879,69.9527986 C421.048924,76.8087311 420.98035,89.1132931 413.82364,98.4662546 C407.520998,106.710809 396.698656,111.13821 381.649617,111.599008 C378.488945,111.704867 376.007786,113.037446 376.095063,116.200765 C376.21351,119.295586 378.750776,120.435128 381.842873,120.435128 C381.905214,120.435128 381.961321,120.435128 382.017427,120.435128 C396.773465,120.435128 408.424937,117.421258 416.884567,110.341153 C419.078959,113.34257 419.166236,116.761195 419.284683,120.491171 C419.459237,126.332102 419.683663,134.657608 429.645703,142.665536 C431.391242,144.066613 435.331173,147.802816 434.396063,150.760643 C433.186654,154.584024 425.076132,159.223143 410.11437,160.200783 C393.53175,161.278054 384.392607,169.921137 379.854206,178.545539 C369.873464,167.15012 358.034969,164.802539 351.732327,164.416465 C351.5079,156.888016 349.001805,147.510146 341.140646,136.89933 C326.446949,117.078773 303.630261,118.666659 287.79573,124.283418 C287.939113,115.241806 288.151072,106.505318 288.431605,98.3790766 C291.529936,90.227927 298.543262,76.2483006 310.899184,73.7699526 C314.00375,73.1410251 316.004886,70.1333817 315.381479,67.0261062 C314.764306,63.9250577 311.784422,61.901281 308.629984,62.5364356 C300.73142,64.1243218 294.534757,68.5579494 289.728291,73.8882657 C290.258186,67.2129163 290.912764,61.82033 291.729426,58.2398021 C294.696843,36.1650692 302.900876,15.2796943 308.586345,15.2796943 Z M392.833534,533.933171 C386.929872,536.890998 377.385515,540.944779 369.100439,543.398219 C379.12482,530.950436 384.897566,513.43387 386.780255,507.05119 C410.095668,491.988065 417.277313,463.543106 417.370824,463.144578 C418.10021,460.074664 416.192586,456.98607 413.112956,456.245056 C409.97722,455.528951 406.947463,458.312422 406.205609,461.363654 C406.105864,461.811999 395.177544,506.509441 354.911701,506.509441 L354.899233,506.509441 C351.732327,506.509441 349.163891,509.573127 349.163891,512.736446 C349.163891,515.899764 351.732327,518.963451 354.899233,518.963451 L354.911701,518.963451 C361.326557,518.963451 367.105538,516.659459 372.348388,515.108935 C367.791285,526.74098 360.173254,540.720607 350.747344,544.8927 C350.497982,545.004786 350.248619,544.699663 349.999256,544.780614 C332.705953,541.106681 300.376078,527.787117 299.902289,507.941652 C299.378627,486.601706 294.971142,479.901448 289.715823,473.998248 C288.19471,472.298275 287.371813,471.326862 286.760875,469.421399 C283.955544,460.591506 279.597931,393.993687 286.629959,375.200586 C292.122173,360.585805 289.715823,354.103493 286.012786,347.154155 C284.504142,344.339549 283.194988,341.886109 282.81471,337.340395 C281.424513,320.234812 290.102335,291.79608 295.58208,290.805986 L297.358789,290.531998 C300.382312,291.459822 303.867156,292.138565 307.613831,292.138565 C313.280598,292.138565 319.402452,290.619176 324.957007,286.440856 C334.956451,308.963933 352.068967,352.148213 349.251168,368.363334 C347.424586,378.768659 339.033531,385.655727 330.935477,392.331076 C322.394805,399.336457 313.554897,406.597145 312.813043,417.91784 C312.183402,427.389115 317.363912,437.676127 329.127598,450.304493 C338.871445,460.772089 337.618398,469.240816 333.578722,473.325731 C331.596289,475.312146 328.678745,476.563774 325.343519,476.439234 C319.072047,474.459046 314.820413,471.501219 314.73937,471.445175 C314.514943,471.2895 314.253113,471.245911 314.016218,471.121371 C313.660876,470.940788 313.330471,470.753978 312.956427,470.654346 C312.601085,470.548487 312.258211,470.523579 311.896635,470.498671 C311.522591,470.461309 311.173483,470.430174 310.799439,470.467536 C310.425395,470.504898 310.09499,470.610757 309.739648,470.716616 C309.39054,470.828702 309.060134,470.922107 308.729729,471.096463 C308.405557,471.264592 308.131258,471.501219 307.838257,471.744072 C307.613831,471.918428 307.352,472.024287 307.15251,472.242232 C307.058999,472.341864 307.034062,472.472631 306.953019,472.57849 C306.896913,472.653214 306.809636,472.690576 306.753529,472.765301 C306.622614,472.952111 306.585209,473.176283 306.472996,473.381774 C306.254804,473.774075 306.04908,474.16015 305.930632,474.583586 C305.837121,474.888709 305.824653,475.193832 305.793483,475.498956 C305.749844,475.909938 305.706206,476.314693 305.756078,476.725676 C305.793483,477.04948 305.886994,477.348376 305.980505,477.653499 C306.092718,478.039574 306.198697,478.419421 306.391953,478.780587 C306.554039,479.098165 306.790934,479.359699 307.027828,479.639914 C307.202382,479.864086 307.314595,480.131847 307.532788,480.331112 C307.676171,480.461879 307.832023,480.54283 307.975407,480.673597 C308.000343,480.692278 308.012811,480.723413 308.037747,480.742094 C308.062683,480.760775 308.212301,480.866634 308.268408,480.897769 C313.081108,485.051181 318.180575,487.155909 323.074318,487.71634 C326.93944,488.843428 331.284585,489.684073 336.028711,489.684073 C340.673091,489.684073 345.610473,488.905698 350.660067,486.92551 C370.384657,479.1293 384.205585,455.628583 391.717636,417.033605 C392.316107,413.932557 390.296269,410.937367 387.173001,410.320894 C384.130776,409.691966 381.069849,411.753105 380.45891,414.860381 C373.838331,448.797558 362.112049,470.012964 346.539349,476.233742 C346.109198,476.401871 345.679047,476.513958 345.255131,476.657179 C350.105235,467.976734 349.450658,455.273643 337.524887,442.489602 C328.329637,432.613572 323.866045,424.611871 324.252557,418.677535 C324.682708,412.294855 330.95418,407.132667 338.223102,401.167197 C347.493161,393.545342 358.010033,384.914713 360.547298,370.331068 C361.825282,362.976975 360.154552,352.260299 357.112327,340.634481 C399.148645,397.150778 443.435461,407.649509 470.45391,407.649509 C477.267746,407.649509 482.890875,406.983219 487.204849,406.217298 C487.23602,411.871418 486.176228,420.103519 480.459588,424.954356 C479.842416,425.477424 479.256413,426.062763 478.682879,426.704144 C472.29296,429.867463 461.277362,433.055689 445.274511,429.923506 C442.088902,429.294578 439.152657,431.337036 438.541718,434.444312 C437.924545,437.557814 439.963085,440.553003 443.067651,441.16325 C448.453885,442.209387 453.397501,442.657731 457.923434,442.657731 C462.598985,442.657731 466.676065,442.103528 470.428974,441.337606 C469.450225,443.573101 468.44654,445.958044 467.361812,448.529797 C456.290108,474.776623 439.589041,514.442645 392.833534,533.933171 Z" id="Shape" fill="#FFFFFF" fill-rule="nonzero"></path>
                <path d="M416.535459,229.158636 C419.153768,220.303835 415.675158,214.01456 415.456966,213.64094 C413.923385,210.975782 410.563223,210.054185 407.813999,211.529985 C405.083477,212.987104 404.048622,216.443092 405.438819,219.214109 C405.569734,219.475644 408.555853,225.758692 399.990244,234.650855 C396.125122,238.654819 393.450707,241.942678 391.287486,244.614063 C386.917404,250.006649 386.000996,251.121283 381.344148,251.526038 C375.802062,251.968156 366.145491,245.59793 351.757263,232.614624 C349.413254,230.491215 345.785026,230.678026 343.665443,233.025607 C341.539626,235.373187 341.720414,238.997304 344.076892,241.114486 C356.127345,251.999291 369.860995,262.989955 380.951402,262.989955 C381.412723,262.989955 381.861575,262.965047 382.329131,262.927685 C391.848552,262.118174 395.345864,257.790406 400.195968,251.812481 C402.197104,249.352814 404.659561,246.307808 408.225447,242.60274 C409.216664,241.575284 410.095668,240.554056 410.899862,239.551508 C417.713698,241.108259 434.159168,247.434896 439.757361,272.629359 C440.355832,275.300744 442.731011,277.119029 445.355554,277.119029 C445.754534,277.119029 446.178451,277.07544 446.589899,276.982035 C449.681997,276.297065 451.639494,273.239605 450.953746,270.151011 C445.224638,244.321394 428.754232,232.963336 416.535459,229.158636 Z" id="Shape" fill="#FFFFFF" fill-rule="nonzero"></path>
                <path d="M247.324163,236.780491 C247.037396,227.147314 247.037396,210.446486 247.037396,190.906144 C247.037396,139.402586 247.037396,75.3142499 242.604974,56.2222524 C240.846967,43.0396828 233.328681,0.0110779552 210.605505,0.0110779552 C191.036767,0.0110779552 182.483626,3.75973499 167.621609,12.3094129 C161.225456,15.9833459 159.380172,14.4203676 156.911481,14.0280663 C149.655026,12.9196594 143.246405,14.0654283 137.211827,19.781819 C132.224573,24.5267968 129.824457,29.1410075 128.072684,32.5160443 C125.79725,36.8936288 125.747377,36.9808069 122.34981,37.2112061 C106.683598,38.3071589 95.9111297,45.1942265 87.4327978,59.5412461 C85.4004918,62.9598719 80.0765981,68.8257106 73.9235734,75.6006921 C60.1213477,90.8070384 41.2134208,111.63637 31.8436172,134.501933 C19.7245898,164.105115 -7.79258447,253.132606 6.45849401,287.835705 C3.27288548,298.085355 -4.7690617,328.989981 6.76396332,348.66109 C6.07821589,356.525797 5.54832015,378.202002 17.0501748,400.127287 C16.2771504,407.194937 15.7659569,425.508559 28.8325626,436.586401 C31.0207203,438.435822 34.592841,446.948138 37.7597473,454.445452 C49.0496437,481.258935 67.9451025,526.130734 119.519544,547.588993 C122.225129,548.934026 146.35097,560.796471 161.287796,560.796471 C176.056303,560.796471 233.696491,544.469264 234.587963,508.128462 C235.01188,490.66794 238.004232,487.311584 240.903073,484.061088 C242.910443,481.813139 245.410304,479.00476 247.01246,473.998248 C250.578346,462.739822 255.260131,392.206536 246.881544,369.814226 C243.377998,360.4924 244.481428,358.437488 246.663352,354.333892 C248.477466,350.933947 250.964859,346.282374 251.600733,338.592023 C252.535844,327.153015 249.038532,294.841086 236.227523,281.453025 C241.557651,273.544728 247.97874,259.259979 247.324163,236.780491 Z M123.403368,52.4486874 C124.35718,52.3801903 125.173843,52.2120612 126.02791,52.0750671 C125.909463,57.9097708 126.857041,64.354721 130.148629,70.2081058 C135.117181,79.0691339 144.156579,84.5924874 156.992524,86.6349451 C157.297993,86.6847611 157.603462,86.7096691 157.902698,86.7096691 C160.670624,86.7096691 163.10191,84.7045735 163.550763,81.8899672 C164.049488,78.7640107 161.923671,75.8248643 158.794169,75.3329309 C149.611388,73.8633577 143.339916,70.2703758 140.160541,64.6411633 C136.638293,58.4141582 137.174423,50.6179479 138.296555,45.0510054 C139.69922,43.2078119 140.74031,41.2774403 141.631781,39.5463329 C143.165362,36.6071866 144.605432,33.8299423 147.734933,30.8534339 C149.916857,28.7798412 150.90184,28.7798412 151.550183,28.7798412 C152.535166,28.7798412 153.513914,28.9541974 154.536301,29.1223265 C160.645687,30.0750583 168.08293,29.6453949 175.227172,25.5417986 C188.705226,17.7891773 194.4281,15.2859213 210.586803,15.2859213 C216.272272,15.2859213 224.463837,36.1712962 227.562169,58.9559077 C228.341427,62.3496254 228.983536,67.5118126 229.49473,73.9567628 C224.675796,68.6015385 218.46043,64.1367758 210.530696,62.5488896 C207.432365,61.907508 204.402608,63.9375117 203.785435,67.0385602 C203.155794,70.1396087 205.175632,73.1534791 208.280198,73.7824067 C220.673524,76.2732087 227.693084,90.3524671 230.772714,98.4911626 C231.047013,106.573815 231.246503,115.285395 231.383652,124.314553 C215.561589,118.691567 192.738667,117.091227 178.032502,136.918011 C170.165109,147.528827 167.659013,156.919151 167.434587,164.441373 C161.125711,164.833674 149.274748,167.224844 139.306474,178.595355 C134.780541,169.970953 125.647632,161.37146 109.052544,160.294188 C94.097016,159.316548 85.9802601,154.75838 84.7708509,150.934999 C83.8357408,147.977172 87.7756715,144.402871 89.5274445,143.001795 C99.4832504,134.993866 99.7139109,126.992165 99.8884648,121.157461 C99.994444,117.427485 100.087955,113.355024 102.282347,110.353607 C110.754445,117.421258 122.405917,120.435128 137.161955,120.435128 C137.224296,120.435128 137.280402,120.435128 137.342743,120.435128 C140.43484,120.435128 142.97834,119.295586 143.071851,116.194538 C143.171596,113.031219 140.684203,111.044805 137.517297,110.938946 C122.505662,110.478147 111.695789,106.405686 105.380678,98.1922664 C98.2177347,88.8828939 98.1429259,76.634375 98.8099711,69.7473074 C99.439612,68.8568457 100.100423,68.041108 100.580446,67.2315974 C106.477874,57.2683893 112.874028,53.183474 123.403368,52.4486874 Z M45.9949506,140.293047 C54.336133,119.91206 72.2029707,100.234724 85.2508741,85.8627964 C86.0737711,84.9536537 86.809391,84.137916 87.5886495,83.2723623 C88.4053123,89.6425885 90.406448,96.6168341 94.5645711,102.98706 C88.7731223,109.519189 88.5861003,115.708832 88.4364827,120.808749 C88.2868651,125.970936 88.18712,129.370881 82.3520327,134.072269 C71.9972465,142.385321 72.5894829,150.362115 73.8612327,154.372306 C76.9595643,164.154931 89.5149764,170.475341 108.323158,171.702061 C129.581329,173.09691 131.476485,190.133996 131.619869,192.027005 C131.781955,194.598758 133.633473,196.747075 136.152036,197.276371 C136.55725,197.369776 136.949997,197.407138 137.348977,197.407138 C139.449858,197.407138 141.432291,196.242688 142.429742,194.32477 C151.038989,177.798299 164.242744,175.917743 168.943231,175.811884 C172.365734,187.207303 180.756789,195.090692 187.826222,198.727263 C188.661587,199.156926 189.559293,199.362417 190.438296,199.362417 C192.520475,199.362417 194.527845,198.229102 195.543998,196.248915 C196.990301,193.440535 195.880637,189.984548 193.062839,188.539883 C188.069351,185.974356 181.504878,179.859437 179.453869,171.073133 C177.47767,162.579499 180.095978,153.382212 187.252688,143.724127 C200.531252,125.821488 222.076189,132.540426 231.545738,136.724974 C231.738994,155.505621 231.738994,174.684796 231.738994,190.906144 C231.738994,210.639523 231.745228,227.50848 232.025761,237.228835 C232.879828,266.078549 220.411693,276.894857 219.969075,277.268477 L216.353315,280.182716 C211.023188,281.365847 203.074751,281.278669 196.990301,273.152427 C196.934195,273.077703 196.859386,273.046568 196.797045,272.978071 C196.734705,272.903347 196.703534,272.809942 196.641194,272.735218 C196.441703,272.517272 196.16117,272.386505 195.93051,272.199695 C195.631275,271.963069 195.356976,270.948067 195.020336,270.779938 C194.964229,270.742576 194.926825,269.883249 194.852016,269.883249 C194.845782,269.883249 194.839548,269.883249 194.82708,269.883249 C194.808378,269.883249 194.802144,270.611809 194.783442,270.605582 C194.546547,270.493496 194.297184,270.892024 194.06029,270.8173 C193.680012,270.698987 193.318436,270.773711 192.919455,270.736349 C192.81971,270.730122 192.726199,270.773711 192.626454,270.773711 C192.352155,270.767484 192.102792,270.904478 191.834728,270.929386 C191.466918,270.966748 191.111576,271.022791 190.75,271.12865 C190.656489,271.159785 190.556744,271.166012 190.463233,271.197147 C190.188934,271.303006 189.958273,271.502271 189.696442,271.645492 C189.459548,271.776259 189.197717,271.826075 188.979525,271.987977 C188.904716,272.04402 188.867311,272.137425 188.798737,272.193468 C188.723928,272.255738 188.636651,272.286873 188.568076,272.342916 C188.356118,272.535953 188.225202,272.816169 188.03818,273.040341 C187.801286,273.339237 187.545689,273.613225 187.377369,273.943257 C187.339965,274.017981 187.265156,274.067797 187.233986,274.142521 C187.227752,274.148748 187.215283,274.179883 187.215283,274.18611 C187.215283,274.192337 187.202815,274.198564 187.202815,274.204791 C126.651317,407.836319 50.6767354,399.305322 31.4633391,394.61016 C23.2031995,379.789888 21.769364,364.633358 21.7880662,355.766103 C27.3363863,358.28804 34.405819,360.330498 42.9090871,360.330498 C57.1601656,360.330498 75.3200045,354.601653 96.6155793,335.883276 C120.965847,314.474832 129.749649,298.888639 130.117459,298.234803 C131.651039,295.47624 130.647354,292.001571 127.891896,290.463501 C125.12397,288.925431 121.645361,289.927979 120.093078,292.667861 C120.012035,292.804855 111.714491,307.338685 89.0411872,327.296236 C53.7563647,358.300494 30.2352278,348.804311 20.8903605,342.371815 L20.8841264,342.359361 C12.3808582,330.521824 17.0377067,306.130646 20.6409978,293.801176 C22.8603258,286.011192 26.7192136,279.634739 31.2139764,272.361597 C38.0776848,261.265074 45.845333,248.686524 49.0184734,227.956824 C53.507002,198.565361 69.8464932,191.491483 70.6943263,191.142771 C73.618104,190.003229 75.089344,186.71537 73.9734459,183.776224 C72.8450797,180.805942 69.5098535,179.317688 66.5798417,180.451003 C65.6260294,180.805942 43.2581949,189.679424 37.6849385,226.225717 C34.86714,244.657652 28.0533041,255.679451 21.4576606,266.34631 C20.3168262,268.195731 19.1946941,270.020243 18.1037322,271.85721 C14.1700356,239.707183 32.5854712,173.022186 45.9949506,140.293047 Z M236.352204,337.334168 C235.97816,341.879882 234.67524,344.327095 233.17283,347.160382 C229.469794,354.091038 227.075912,360.560897 232.561891,375.163224 C239.587685,393.956325 235.236306,460.547917 232.443444,469.365356 C231.832505,471.270819 230.99714,472.211097 229.476028,473.911069 C224.214475,479.795589 219.813223,486.421123 219.289561,507.773523 C218.803304,527.612761 186.485898,540.757969 169.192594,544.444356 C168.943231,544.344723 168.687635,544.313588 168.438272,544.207729 C159.006128,540.035636 151.400565,525.371039 146.843462,513.732767 C152.080079,515.289518 157.852825,516.211115 164.267681,516.211115 C166.923393,516.067894 170.021725,514.529823 170.021725,511.360278 C170.021725,508.196959 167.453289,506.509441 164.292617,506.509441 C164.286383,506.509441 164.280149,506.509441 164.273915,506.509441 C154.685919,506.509441 146.818526,503.165539 140.322627,499.44179 C140.23535,499.391974 140.148073,498.912495 140.054562,498.862679 C119.606821,486.962872 113.310412,462.061079 112.973773,460.691138 C112.21945,457.621224 109.121119,455.603675 106.066426,456.363369 C102.986796,457.11061 101.09164,460.12448 101.82726,463.200621 C101.920771,463.592922 109.096183,492.0192 132.417829,507.082325 C134.294284,513.465005 140.073264,530.981571 150.103879,543.429354 C140.964736,540.720607 130.634886,536.087715 125.884527,533.715226 C79.6152771,514.448872 62.8955078,474.78285 51.8487401,448.536024 C50.7640123,445.964271 49.7603274,443.573101 48.7753447,441.337606 C52.5282534,442.097301 56.6115677,442.657731 61.2871184,442.657731 C65.8005833,442.657731 70.750433,442.209387 76.1304333,441.16325 C79.2474671,440.553003 81.267305,437.557814 80.6626004,434.444312 C80.0516618,431.337036 76.9595643,429.282124 73.9360415,429.923506 C57.8957856,433.043235 46.8926563,429.867463 40.5089711,426.704144 C39.9354369,426.056536 39.3432005,425.477424 38.7260278,424.954356 C33.0156219,420.109746 31.9620645,411.877645 31.9932348,406.223525 C36.2947414,406.983219 41.9241045,407.649509 48.7379403,407.649509 C75.7626233,407.649509 120.049439,397.144551 162.085757,340.628254 C159.043532,352.247845 157.366568,362.970748 158.644552,370.331068 C161.188051,384.914713 171.698689,393.551569 180.968748,401.167197 C188.243905,407.132667 194.515377,412.288628 194.945527,418.677535 C195.338274,424.611871 190.868447,432.613572 181.673197,442.489602 C169.747426,455.27987 169.086615,467.982961 173.949188,476.657179 C173.519037,476.513958 173.09512,476.401871 172.66497,476.233742 C157.079801,470.012964 145.35352,448.797558 138.739174,414.860381 C138.115767,411.740651 135.098479,409.667058 132.012615,410.320894 C128.908049,410.937367 126.875743,413.932557 127.480448,417.033605 C134.998733,455.622356 148.807193,479.1293 168.531783,486.92551 C173.581378,488.905698 178.531227,489.684073 183.16314,489.684073 C187.907265,489.684073 192.258644,488.837201 196.123766,487.71634 C201.023743,487.155909 206.12321,485.044954 210.948379,480.879088 C210.998251,480.847953 211.135401,480.754548 211.154103,480.742094 C211.172805,480.72964 211.185273,480.698505 211.21021,480.679824 C211.359827,480.549057 211.515679,480.468106 211.665297,480.331112 C211.883489,480.131847 211.983234,479.870313 212.164022,479.652368 C212.400916,479.359699 212.637811,479.091938 212.812365,478.768133 C212.993153,478.425648 213.092898,478.083163 213.198877,477.71577 C213.304856,477.373284 213.410835,477.04948 213.44824,476.694541 C213.485644,476.314693 213.44824,475.959754 213.41707,475.579907 C213.385899,475.224968 213.360963,474.888709 213.261218,474.539997 C213.149005,474.153923 212.961983,473.817664 212.774961,473.462725 C212.650279,473.232326 212.612875,472.977019 212.457023,472.759074 C212.394682,472.665668 212.294937,472.628306 212.220129,472.541128 C212.14532,472.447723 212.120383,472.32941 212.039341,472.236005 C211.83985,472.01806 211.571786,471.912201 211.347359,471.731618 C211.07306,471.507446 210.811229,471.277046 210.499526,471.10269 C210.150418,470.922107 209.788842,470.810021 209.414798,470.704162 C209.084393,470.60453 208.766455,470.504898 208.423581,470.467536 C208.043303,470.423947 207.675493,470.461309 207.295215,470.498671 C206.939873,470.529806 206.603234,470.554714 206.254126,470.648119 C205.873848,470.753978 205.537208,470.940788 205.181866,471.121371 C204.944972,471.252138 204.683141,471.283273 204.464948,471.445175 C204.39014,471.507446 200.169676,474.446592 193.941842,476.433006 C190.569212,476.563774 187.614264,475.312146 185.625596,473.325731 C181.579686,469.240816 180.314171,460.765862 190.070486,450.304493 C201.834172,437.676127 207.020916,427.382888 206.391275,417.91784 C205.636953,406.597145 196.803279,399.336457 188.268841,392.331076 C180.152085,385.661954 171.767264,378.768659 169.959384,368.363334 C167.135352,352.148213 184.247867,308.957706 194.241078,286.434629 C199.795632,290.612949 205.92372,292.138565 211.584254,292.138565 C215.368333,292.138565 218.878113,291.453595 221.932806,290.500863 L223.622238,290.805986 C229.083281,291.79608 237.754869,320.228585 236.352204,337.334168 Z" id="Shape" fill="#FFFFFF" fill-rule="nonzero"></path>
                <path d="M72.5832488,276.982035 C73.0009314,277.07544 73.4186139,277.119029 73.8300623,277.119029 C76.4546048,277.119029 78.8235505,275.300744 79.422021,272.629359 C85.0077455,247.441123 101.45945,241.114486 108.267052,239.551508 C109.071246,240.560283 109.956484,241.581511 110.947701,242.608967 C114.519821,246.307808 116.988512,249.352814 118.97718,251.812481 C123.827284,257.790406 127.33083,262.118174 136.850251,262.927685 C137.305338,262.965047 137.760425,262.989955 138.221746,262.989955 C149.324621,262.989955 163.039569,251.993064 175.10249,241.114486 C177.452734,238.997304 177.633522,235.373187 175.513939,233.025607 C173.394356,230.678026 169.766128,230.516123 167.415885,232.614624 C153.027657,245.610384 143.096787,251.968156 137.835234,251.526038 C133.165918,251.12751 132.261978,250.006649 127.891896,244.614063 C125.734909,241.942678 123.066728,238.654819 119.195372,234.657082 C110.760679,225.920594 113.509902,219.693589 113.734329,219.23279 C115.218037,216.511589 114.257991,213.080509 111.552405,211.529985 C108.809416,209.973234 105.30587,210.901058 103.722416,213.64094 C103.504224,214.020787 100.01938,220.297608 102.637689,229.164863 C90.4251502,232.969563 73.9547437,244.327621 68.2194015,270.157238 C67.5336541,273.239605 69.4911513,276.297065 72.5832488,276.982035 Z" id="Shape" fill="#FFFFFF" fill-rule="nonzero"></path>
            </g>
        </g>
    </g>
</svg>